<svg id="Capa_1" data-name="Capa 1" xmlns="http://www.w3.org/2000/svg" viewBox="0 0 33 13"><defs><style>.cls-1{fill:#f6f6f6;}.cls-2{fill:#d2b552;}.cls-3{fill:#fff;}</style></defs><path class="cls-1" d="M6,5.07l.7-1,.6-1.27.15-1.22h1.2L9,4.12l.24,1H8.1l.12-1L8.16,3.7H7l-.21.42v1H6ZM8.15,3.63,7.93,1.86H7.85L7,3.63Z"/><path class="cls-1" d="M9.55,5.07l.34-1.21.15-1,0-1.21h1.18a3.58,3.58,0,0,1,.48,0,.78.78,0,0,1,.43.24.82.82,0,0,1,.2.6,1.18,1.18,0,0,1-.24.72,1,1,0,0,1-.63.4v.11l.25.57.38.76h-1L11,4.31l-.16-.62h-.15v.07l-.06,1.31H9.55Zm1.26-1.45c.47,0,.83-.55.83-1.19s-.29-.72-.53-.72H11l-.3,1.91Z"/><path class="cls-1" d="M13.09,5.07l.34-1.21.33-2.15h-.14l-.92,1h0l.19-1.07h2.55L15.24,2.7h0l-.56-1h-.14L14.2,3.86l0,1.21H13.09Z"/><path class="cls-1" d="M14.73,5.07l.7-1L16,2.85l.14-1.22h1.2l.34,2.49.24,1H16.82l.12-1-.06-.42H15.71l-.21.42v1h-.77Zm2.14-1.44-.22-1.77h-.08l-.82,1.77Z"/><path class="cls-1" d="M18.28,5.07l.34-1.21.15-1,.05-1.21h1.23c.74,0,1.13.33,1.13.77a.84.84,0,0,1-.21.54,1,1,0,0,1-.52.34l0,.1a.73.73,0,0,1,.57.7c0,.55-.65,1-1.49,1H18.28ZM19.39,5a.87.87,0,0,0,.85-.93c0-.46-.2-.71-.61-.71h-.16L19.21,5Zm.25-1.71a.91.91,0,0,0,.8-1c0-.41-.18-.61-.54-.61h-.18L19.47,3.3Z"/><path class="cls-1" d="M21.23,5.07l.34-1.21.14-1,.05-1.21h1.18a3.58,3.58,0,0,1,.48,0,.78.78,0,0,1,.63.84,1.18,1.18,0,0,1-.24.72,1.06,1.06,0,0,1-.63.4l0,.11.25.57.39.76h-1l-.13-.77-.15-.62h-.16v.07L22.3,5.07H21.23Zm1.25-1.45c.48,0,.83-.55.83-1.19s-.28-.72-.53-.72h-.11l-.31,1.91Z"/><path class="cls-1" d="M24.14,5.07l.34-1.21.15-1,.05-1.21h1.06L25.4,2.85l-.15,1,0,1.21H24.14Z"/><path class="cls-1" d="M25.48,5.07l.7-1,.6-1.27.14-1.22h1.2l.35,2.49.24,1H27.56l.12-1-.06-.42H26.46l-.22.42v1h-.76Zm2.13-1.44L27.4,1.86h-.09l-.82,1.77Z"/><path class="cls-1" d="M32,2.76,31.8,4l-.07,1.12h-.92l-1-3.2h-.08L29.41,4l.16,1.12h-.75L29.34,4l.18-1.19.08-1.12h1l.95,3.09h.08l.3-2-.16-1.12h.73Z"/><path class="cls-1" d="M6.17,7,6,6H7.15L7,7,7.1,9.25h.09L8,6.87,7.84,6H9l-.2,1,.15,2.26H9L9.8,7,9.67,6h.77L9.87,7,9,9.48H8.23L8,7,7.15,9.48H6.4Z"/><path class="cls-1" d="M10.16,9.47l.34-1.21.15-1,0-1.21H13l-.15.91h0l-.91-.84H11.6l-.25,1.59h.22l1.11-.43h0l-.16.94h0l-1-.43h-.21L11.08,9.4h.34l1.2-.83h0l-.15.91H10.16Z"/><path class="cls-1" d="M13,9.47l.34-1.21.15-1,0-1.21H14.6l-.34,1.21-.08.62,1-1.09L15.51,6h.82l-1,.74-.21.27.38,1.56.35.86H14.7l-.07-.78-.21-1-.25.3-.06.29,0,1.21H13Z"/><path class="cls-1" d="M16.14,9.47l.34-1.21.16-1,0-1.21H19l-.16.91h0l-.9-.84h-.34l-.24,1.59h.21l1.12-.43h0l-.17.94h0l-1-.43h-.21L17.07,9.4h.33l1.2-.83h0l-.16.91H16.14Z"/><path class="cls-1" d="M19,9.47l.35-1.21.15-1,0-1.21h2.31l-.16.91h0l-.9-.84h-.34l-.24,1.59h.21l1.12-.43h0l-.17.94h0l-1-.43h-.21L19.91,9.4h.33l1.2-.83h0l-.16.91H19Z"/><path class="cls-1" d="M24.79,7.16l-.18,1.18-.08,1.13h-.92l-1-3.21h-.08l-.32,2.07.16,1.13h-.74l.51-1.13.18-1.18L22.4,6h1l.94,3.08h.08l.3-1.95L24.57,6h.73Z"/><path class="cls-1" d="M25.07,9.47l.34-1.21.16-1,0-1.21h1.12a3,3,0,0,1,.62.06,1,1,0,0,1,.54.38,1.57,1.57,0,0,1,.25,1,1.91,1.91,0,0,1-1.94,2H25.07Zm1-.07c.77,0,1.34-1,1.33-2.07a2,2,0,0,0-.14-.85.7.7,0,0,0-.3-.33,1.38,1.38,0,0,0-.37-.05h-.08L26,9.4Z"/><path class="cls-2" d="M11,10h-.07a4.76,4.76,0,0,1-.74.53h0a4.87,4.87,0,0,1-1.28.81A5.21,5.21,0,0,1,2,8.25a5.48,5.48,0,0,1,3-7A5.87,5.87,0,0,1,6.59.82a5.3,5.3,0,0,1,.8-.1,0,0,0,0,0,0,0s0-.05,0-.05A5.66,5.66,0,0,0,4.77.69c-.19.05-.39.11-.58.18L4,1A5.88,5.88,0,0,0,2.15,2.3,6.33,6.33,0,0,0,.86,8.67a6.39,6.39,0,0,0,1.07,1.77A6,6,0,0,0,6,12.49a5.81,5.81,0,0,0,2.23-.29l.21-.07A5.6,5.6,0,0,0,9,11.86a6,6,0,0,0,2-1.77S11,10,11,10Z"/><path class="cls-3" d="M10.14,10.55l-.35.15A5,5,0,0,1,3.27,7.76,5.37,5.37,0,0,1,6.23,1L6.59.82h0a5.87,5.87,0,0,0-1.54.41,5.48,5.48,0,0,0-3,7,5.21,5.21,0,0,0,6.82,3.1,4.87,4.87,0,0,0,1.28-.81Z"/></svg>