<svg id="Capa_1" data-name="Capa 1" xmlns="http://www.w3.org/2000/svg" viewBox="0 0 500 250"><defs><style>.cls-1{fill:#f6f6f6;}.cls-2{fill:#d8b847;}</style></defs><path class="cls-1" d="M136.08,62.51l9.61-13L154,32.41l2-16.52h16.48l4.71,33.64,3.31,13v.13H164.72l1.66-13.11-.83-5.59h-16l-2.93,5.66v13h-10.5ZM165.42,43l-3-24h-1.14L150,43Z"/><path class="cls-1" d="M184.9,62.51l4.64-16.4,2-13.7L192.15,16v-.13h16.23a41.54,41.54,0,0,1,6.62.52,10.83,10.83,0,0,1,5.86,3.16c1.84,1.78,2.8,4.48,2.8,8.17a15.41,15.41,0,0,1-3.31,9.74A14.81,14.81,0,0,1,211.69,43l-.19,1.44,3.44,7.77,5.28,10.28v.13H206.35l-1.72-10.41-2.17-8.42h-2.1v.85l-.76,17.85-.06.13H184.9Zm17.24-19.69c6.56,0,11.4-7.44,11.4-16.07-.19-9.28-3.89-9.88-7.26-9.88h-1.59l-4.2,26Z"/><path class="cls-1" d="M233.46,62.51l4.71-16.4,4.58-29.24h-1.91l-12.66,13.5h-.13l2.61-14.48h35l-2.61,14.48h-.12l-7.77-13.5h-1.84l-4.59,29.24-.63,16.4v.13H233.46Z"/><path class="cls-1" d="M256.05,62.51l9.61-13,8.28-17.12,2-16.52h16.48l4.71,33.64,3.31,13v.13H284.69l1.66-13.11-.83-5.59h-16l-2.93,5.66v13h-10.5ZM285.39,43l-3-24h-1.15L270,43Z"/><path class="cls-1" d="M304.74,62.51l4.71-16.4,2.1-13.7L312.12,16v-.13h16.93c10.12,0,15.47,4.47,15.47,10.4a11.6,11.6,0,0,1-2.8,7.31,14.29,14.29,0,0,1-7.2,4.61l-.19,1.38c4.9,1.52,7.77,5,7.77,9.48.19,7.44-8.91,13.7-20.43,13.57H304.74ZM320,61.65c6.87,0,11.77-5.53,11.77-12.64,0-6.13-2.8-9.55-8.46-9.55H321l-3.56,22.19Zm3.5-23.18c6.17,0,10.95-6.25,10.95-13.3,0-5.53-2.48-8.3-7.39-8.3h-2.48l-3.37,21.6Z"/><path class="cls-1" d="M345.22,62.51l4.64-16.4,2-13.7L352.47,16v-.13H368.7a41.54,41.54,0,0,1,6.62.52,10.83,10.83,0,0,1,5.86,3.16c1.84,1.78,2.8,4.48,2.8,8.17a15.41,15.41,0,0,1-3.31,9.74A14.81,14.81,0,0,1,372,43l-.19,1.44,3.44,7.77,5.28,10.28v.13H366.67L365,52.23l-2.17-8.42h-2.1v.85l-.76,17.85-.06.13H345.22Zm17.24-19.69c6.56,0,11.4-7.44,11.4-16.07-.19-9.28-3.89-9.88-7.26-9.88H365l-4.2,26Z"/><path class="cls-1" d="M385.19,62.51l4.71-16.4,2.1-13.7L392.57,16v-.13h14.7l-.06.13-4.65,16.39-2.1,13.7-.57,16.4-.07.13H385.19Z"/><path class="cls-1" d="M403.58,62.51l9.61-13,8.27-17.12,2-16.52h16.48l4.71,33.64,3.31,13v.13H432.22l1.65-13.11-.82-5.59H417l-2.93,5.66v13h-10.5ZM432.92,43l-3-24h-1.15L417.52,43Z"/><path class="cls-1" d="M493,31.23l-2.55,16.06-1.08,15.22v.13h-12.6L463.09,19.18h-1.15l-4.39,28.11,2.16,15.22v.13H449.53v-.13l7.13-15.22,2.48-16.06L460.22,16l.07-.13H474L486.89,57.7H488l4.08-26.47L490,16v-.13h10V16Z"/><path class="cls-1" d="M112.94,88.56l-2.17-13v-.13h15.72l-2.8,13.1,2.1,30.56h1.15l11-32.2-2-11.46h15.72l-2.8,13.1,2.1,30.56h1.15L162.83,88.5l-1.78-13h10.5v.13L163.72,88.5l-12.09,33.71H141.26L138.2,88.56l-11.71,33.65H116.12Z"/><path class="cls-1" d="M167.73,122.08l4.71-16.4L174.54,92l.58-16.4v-.13h31.69l-2.16,12.31h-.13L192.11,76.45h-4.58l-3.37,21.6h2.92l15.34-5.93h.13L200.26,105h-.13L187,99h-2.87l-3.63,22.19h4.59l16.48-11.32h.06l-2.16,12.31h-31.7Z"/><path class="cls-1" d="M206.75,122.08l4.71-16.4L213.56,92l.57-16.4v-.13h14.7l-.06.13L224.12,92,223,100.42,237,85.6l4.2-10.14h11.33v.13l-14.26,10-3,3.75,5.28,21.14,4.78,11.59v.13H230l-.82-10.53-3-14-3.43,4.08-.77,3.88-.57,16.4-.06.13H206.75Z"/><path class="cls-1" d="M249.9,122.08l4.71-16.4L256.71,92l.57-16.4v-.13H289l-2.17,12.31h-.12L274.28,76.45h-4.59l-3.37,21.6h2.93l15.34-5.93h.12L282.42,105h-.13L269.12,99h-2.86l-3.63,22.19h4.58l16.48-11.32h.07l-2.17,12.31H249.9Z"/><path class="cls-1" d="M288.91,122.08l4.71-16.4L295.72,92l.58-16.4v-.13H328l-2.16,12.31h-.13L313.29,76.45h-4.58l-3.38,21.6h2.93l15.34-5.93h.13L321.44,105h-.13L308.13,99h-2.86l-3.63,22.19h4.59l16.48-11.32h.06l-2.16,12.31h-31.7Z"/><path class="cls-1" d="M368.66,90.8l-2.55,16.07L365,122.08v.13h-12.6L338.75,78.75H337.6l-4.39,28.12,2.16,15.21v.13H325.19v-.13l7.13-15.21L334.8,90.8l1.08-15.21.07-.13h13.68l12.92,41.81h1.15l4.07-26.47-2.1-15.21v-.13h10v.13Z"/><path class="cls-1" d="M372.48,122.08l4.71-16.4L379.29,92l.57-16.4v-.13h15.47a36.81,36.81,0,0,1,8.46.86c2.61.59,5,2.3,7.39,5.13s3.5,7.31,3.5,13.37c.19,15.28-10.82,27.59-26.67,27.39H372.48Zm13.81-.86c10.44.33,18.39-13.49,18.2-28.11,0-5.27-.63-9.09-2-11.53s-2.67-4-4.14-4.41a16.62,16.62,0,0,0-5-.72h-1.08l-7.06,44.77Z"/><path class="cls-2" d="M69.6,237.29a123.87,123.87,0,0,0,46,12.4,121.66,121.66,0,0,0,47-5.86c1.49-.49,3-1,4.42-1.56a122.33,122.33,0,0,0,11.68-5.57,126.6,126.6,0,0,0,41.74-36.87,1.09,1.09,0,0,0-.11-1.4,1,1,0,0,0-1.36-.05,103.28,103.28,0,0,1-64.6,24.5c-46,1-85.54-28.74-100.26-70.93-17-41.28-7.52-90.38,27.14-121.19a103.29,103.29,0,0,1,64-26.21,1,1,0,0,0,1-1,1.06,1.06,0,0,0-.85-1.1A123.8,123.8,0,0,0,90.15,3.85a120.46,120.46,0,0,0-12.31,3.9q-2.16.88-4.29,1.88A123.73,123.73,0,0,0,34.91,37.56,128.12,128.12,0,0,0,9.09,78.3a130.68,130.68,0,0,0-1.42,92,127.54,127.54,0,0,0,61.93,67Z"/><path class="cls-1" d="M203.49,209.25c-2.42,1.18-4.89,2.3-7.44,3.31-55,21.7-116.28-5.24-137.6-61.27S65.85,31.12,120.89,9.42c2.55-1,5.11-1.89,7.69-2.69-10.43.86-22.3,4.36-32.55,8.41C38.8,37.71,10.38,103.24,32.55,161.5s86.53,87.2,143.76,64.63C186.56,222.09,195.22,215.76,203.49,209.25Z"/><path class="cls-1" d="M82.17,181.39l15.29-13.63a66.64,66.64,0,0,0,10.28-11.4,21.67,21.67,0,0,0,4.35-12.52c0-5.86-3.36-8-5.93-8L89.49,149.58h-.13l2.57-13.77,15-1c10.08,0,15.62,4,15.62,11.59a15.21,15.21,0,0,1-2,7.71c-2.57,4.68-6.26,7.84-12.12,12.12L97.92,174l-.19,1.31h7.9l13.78-8.43h.13l-2.77,15.15H82.11Z"/><path class="cls-1" d="M163.69,153.2c.27,15.28-10.94,29.64-23.06,29.31-9.3,0-15.42-6.78-15.42-18.57-.33-15.29,10.8-29.52,23.13-29.12C157.63,134.82,163.69,141.41,163.69,153.2Zm-16.93,23.45a46.51,46.51,0,0,0,4.81-12.58,65.12,65.12,0,0,0,1.84-15.48c0-8.76-1.65-12.78-5.27-12.78-2,0-4.09,1.64-6.06,4.87a46.07,46.07,0,0,0-4.75,12.52,64.7,64.7,0,0,0-1.84,15.48c0,8.76,1.58,12.85,5.2,12.85C142.74,181.53,144.78,179.88,146.76,176.65Z"/><path class="cls-1" d="M162.11,181.39l15.29-13.63a67.06,67.06,0,0,0,10.28-11.4A21.67,21.67,0,0,0,192,143.84c0-5.86-3.36-8-5.93-8l-16.68,13.77h-.13l2.57-13.77,15-1c10.08,0,15.62,4,15.62,11.59a15.21,15.21,0,0,1-2,7.71c-2.57,4.68-6.26,7.84-12.13,12.12L177.86,174l-.2,1.31h7.91l13.77-8.43h.14l-2.77,15.15H162Z"/><path class="cls-1" d="M203.69,181.53l2.44-13.77h.13l10.35,13.77c5.67.26,10.54-9.16,10.41-19.5,0-6.53-1.45-9.69-4.87-9.69-4.35-.2-11.6,6.59-14.17,11.07h-.79l4.48-28.13h28.6l-2.77,15.15h-.13L228.93,144h-18l-2.11,14.63h2c4.15-4.75,8.83-7.32,13.58-7.32,6.85,0,13.44,4.55,13.44,12.59.2,9.94-10.15,18.84-22,18.57Z"/><path class="cls-2" d="M252.79,154.6l6.33-5.64a28.43,28.43,0,0,0,4.25-4.71,9,9,0,0,0,1.8-5.18c0-2.42-1.39-3.32-2.45-3.32l-6.9,5.69h-.06l1.07-5.69,6.21-.41c4.17,0,6.46,1.66,6.46,4.79a6.36,6.36,0,0,1-.81,3.19c-1.07,1.93-2.59,3.24-5,5l-4.36,3.21-.08.55h3.27l5.7-3.49h.05l-1.14,6.27H252.77Z"/><path class="cls-2" d="M269,154.46h2.65l3-18.52H272l.06-.41h8l0,.05-2,6.79-2,12.09h2.62l-.05.41H269Z"/><path class="cls-2" d="M280.93,146.78h7.82l-.27,1.44h-7.85Z"/><path class="cls-2" d="M288.4,154.6l6.32-5.64a28.06,28.06,0,0,0,4.26-4.71,9,9,0,0,0,1.8-5.18c0-2.42-1.39-3.32-2.46-3.32l-6.89,5.69h-.06l1.06-5.69,6.22-.41c4.17,0,6.46,1.66,6.46,4.79a6.26,6.26,0,0,1-.82,3.19c-1.06,1.93-2.59,3.24-5,5l-4.36,3.21-.09.55h3.28l5.69-3.49h.06l-1.15,6.27H288.37Z"/><path class="cls-2" d="M304.38,154.6,310.7,149a28,28,0,0,0,4.25-4.71,9,9,0,0,0,1.8-5.18c0-2.42-1.39-3.32-2.45-3.32l-6.9,5.69h0l1.06-5.69,6.22-.41c4.17,0,6.46,1.66,6.46,4.79a6.26,6.26,0,0,1-.82,3.19c-1.06,1.93-2.59,3.24-5,5l-4.36,3.21-.08.55h3.27l5.7-3.49h.05l-1.14,6.27H304.35Z"/><path class="cls-2" d="M322,146.78h7.83l-.28,1.44h-7.85Z"/><path class="cls-2" d="M329.43,154.6l6.33-5.64a28.43,28.43,0,0,0,4.25-4.71,9,9,0,0,0,1.8-5.18c0-2.42-1.39-3.32-2.45-3.32l-6.9,5.69h-.06l1.07-5.69,6.21-.41c4.17,0,6.46,1.66,6.46,4.79a6.36,6.36,0,0,1-.81,3.19c-1.07,1.93-2.59,3.24-5,5L336,151.54l-.08.55h3.27l5.7-3.49h.05l-1.14,6.27H329.4Z"/><path class="cls-2" d="M346.55,154.65l1-5.69h.06l4.28,5.69c2.1.11,4.39-3.19,4.33-6.05,0-2.48-1.5-3.81-4.09-3.81h-1.25l.05-.41h1.31c2.7,0,4.55-2.26,4.55-5.53,0-2.1-.68-3.1-2.56-3.1l-5.61,5.69h-.06l1.06-5.69,4.91-.41c4.28,0,6.65,1.5,6.65,4.25a5.07,5.07,0,0,1-3.38,4.74l-.11.54c2.21.68,3.14,1.69,3.14,3.32.11,3.65-4.23,6.92-9.27,6.87Z"/><path class="cls-2" d="M266.4,169.11l-1.09,6.65-.47,6.29v.06h-5.39l-5.87-18h-.49l-1.88,11.63.93,6.29v.06h-4.36v-.06l3.05-6.29,1.06-6.65.47-6.29,0,0h5.87l5.53,17.29h.49L266,169.11l-.9-6.29v0h4.28v0Z"/><path class="cls-2" d="M287.5,170.72c.14,6.05-5,11.71-11.12,11.58-4.67,0-7.56-3.11-7.56-8.12-.13-6.1,5-11.74,11.05-11.6C284.56,162.58,287.5,165.68,287.5,170.72Zm-4.44-.38c0-4.49-1.45-7.35-3.71-7.35a3.86,3.86,0,0,0-3,1.66,12.32,12.32,0,0,0-2.24,4.33,18.18,18.18,0,0,0-.84,5.58c0,4.47,1.41,7.33,3.7,7.33C280.19,182.05,283.11,176.11,283.06,170.34Z"/><path class="cls-2" d="M290.64,168.19l-1.39-5.37v0H296l-.71,5.42,2,12.64h.49l6-12.67,0-5.39h4.53v0l-4.12,5.37-6.62,13.92H293Z"/><path class="cls-2" d="M306.37,182.05l2-6.78.9-5.67.25-6.78v0h6.3l0,0-2,6.78-.9,5.67-.24,6.78,0,.06h-6.27Z"/><path class="cls-2" d="M315.53,182.05l2-6.78.9-5.67.24-6.78v0h13.58l-.93,5.09h0L326,163.18h-2l-1.45,8.93h1.26l6.57-2.45h.05l-1,5.31h0l-5.65-2.45h-1.23L321,181.7h2L330,177h0l-.92,5.1H315.53Z"/><path class="cls-2" d="M331.64,182.05l3.14-6.78.9-5.67-.88-6.78v0h7l2.37,11.41h.49l5.92-11.41h5.89v0l-2,6.78-.93,5.67-.25,6.78v.06H347v-.06l2-6.78,1.77-11h-.49l-9.27,17.84H341L337.09,166h-.49l-1.44,9.26.84,6.78v.06h-4.36Z"/><path class="cls-2" d="M356.4,182.05l2-6.78.9-5.67.25-6.78v0h7.25c4.34,0,6.63,1.85,6.63,4.3a4.68,4.68,0,0,1-1.2,3,6.09,6.09,0,0,1-3.08,1.91l-.09.57c2.1.63,3.33,2.07,3.33,3.93.08,3.07-3.82,5.66-8.75,5.61H356.4Zm6.51-.35a5,5,0,0,0,5-5.23c0-2.53-1.2-3.95-3.63-3.95h-.95l-1.53,9.18Zm1.5-9.59c2.65,0,4.69-2.59,4.69-5.5,0-2.29-1.06-3.43-3.16-3.43h-1.06l-1.45,8.93Z"/><path class="cls-2" d="M373.74,182.05l2-6.78.87-5.67.24-6.78v0h7a17.86,17.86,0,0,1,2.83.22,4.67,4.67,0,0,1,2.51,1.3,4.4,4.4,0,0,1,1.2,3.38,6.19,6.19,0,0,1-1.42,4,6.32,6.32,0,0,1-3.71,2.29l-.08.6,1.47,3.21,2.27,4.25v.06h-5.95l-.73-4.31-.93-3.48h-.9v.35l-.33,7.38,0,.06h-6.27Zm7.39-8.14c2.8,0,4.88-3.08,4.88-6.65-.09-3.84-1.67-4.08-3.11-4.08h-.68l-1.8,10.73Z"/><path class="cls-2" d="M390.86,182.05l2-6.78.9-5.67.24-6.78v0H407.6l-.93,5.09h-.05l-5.32-4.68h-2l-1.45,8.93h1.26l6.57-2.45h0l-1,5.31h-.05l-5.65-2.45h-1.22l-1.56,9.18h2l7.07-4.69h0l-.92,5.1H390.86Z"/></svg>