<svg id="Capa_1" data-name="Capa 1" xmlns="http://www.w3.org/2000/svg" viewBox="0 0 200 65"><defs><style>.cls-1{fill:#fff;}.cls-2{fill:#d2b552;}</style></defs><path class="cls-1" d="M34.75,22l4.31-5.77,3.71-7.6.89-7.34h7.39l2.12,14.94L54.65,22v0h-7l.74-5.82L48,13.76h-7.2l-1.31,2.51v5.79H34.75Zm13.16-8.69L46.57,2.68h-.51L41,13.32Z"/><path class="cls-1" d="M56.65,22l2.09-7.29.91-6.08.26-7.28V1.3h7.28a18.32,18.32,0,0,1,3,.24,4.84,4.84,0,0,1,2.63,1.4,4.78,4.78,0,0,1,1.26,3.63,6.77,6.77,0,0,1-1.49,4.32,6.65,6.65,0,0,1-3.88,2.46l-.09.64,1.54,3.45L72.5,22v0H66.28l-.77-4.62-1-3.74h-1v.38L63.25,22l0,0H56.65Zm7.74-8.75c2.94,0,5.11-3.3,5.11-7.13C69.42,2,67.76,1.74,66.25,1.74h-.72L63.65,13.26Z"/><path class="cls-1" d="M78.44,22l2.12-7.29,2-13h-.85l-5.69,6h0L77.19,1.3H92.9L91.73,7.74h-.06l-3.49-6h-.82l-2.06,13L85,22v0H78.44Z"/><path class="cls-1" d="M88.58,22l4.32-5.77,3.71-7.6L97.5,1.3h7.39L107,16.24,108.49,22v0h-7l.74-5.82-.37-2.48h-7.2L93.3,16.27v5.79H88.58Zm13.17-8.69L100.41,2.68h-.52l-5,10.64Z"/><path class="cls-1" d="M110.43,22l2.12-7.29.94-6.08.26-7.28V1.3h7.59c4.55,0,6.95,2,6.95,4.62A5.12,5.12,0,0,1,127,9.17a6.44,6.44,0,0,1-3.23,2l-.08.62A4.4,4.4,0,0,1,127.2,16c.09,3.3-4,6.08-9.17,6h-7.6Zm6.83-.38A5.32,5.32,0,0,0,122.54,16c0-2.72-1.25-4.24-3.79-4.24h-1l-1.6,9.86Zm1.57-10.3c2.77,0,4.91-2.78,4.91-5.91,0-2.45-1.11-3.68-3.31-3.68h-1.11l-1.52,9.59Z"/><path class="cls-1" d="M128.6,22l2.08-7.29.92-6.08.26-7.28V1.3h7.28a18.42,18.42,0,0,1,3,.24,4.84,4.84,0,0,1,2.63,1.4A4.82,4.82,0,0,1,146,6.57a6.76,6.76,0,0,1-1.48,4.32,6.64,6.64,0,0,1-3.89,2.46l-.08.64,1.54,3.45L144.45,22v0h-6.23l-.77-4.62-1-3.74h-.94v.38L135.2,22l0,0H128.6Zm7.74-8.75c2.94,0,5.11-3.3,5.11-7.13-.08-4.13-1.74-4.39-3.25-4.39h-.72L135.6,13.26Z"/><path class="cls-1" d="M146.54,22l2.11-7.29.94-6.08.26-7.28V1.3h6.6l0,.06-2.09,7.28-.94,6.08L153.13,22l0,0h-6.57Z"/><path class="cls-1" d="M154.79,22l4.31-5.77,3.72-7.6.88-7.34h7.4l2.11,14.94L174.7,22v0h-7.06l.75-5.82L168,13.76h-7.19l-1.32,2.51v5.79h-4.71ZM168,13.32,166.62,2.68h-.52l-5,10.64Z"/><path class="cls-1" d="M194.92,8.12l-1.14,7.13L193.29,22v0h-5.65L181.5,2.76H181l-2,12.49L180,22v0h-4.57v0l3.2-6.76,1.11-7.13.49-6.76,0-.06h6.14l5.8,18.57h.51l1.83-11.75-.94-6.76V1.3h4.48v.06Z"/><path class="cls-1" d="M49.88,34.43l-1.14,7.14-.48,6.75v.06H42.6l-6.14-19.3H36L34,41.57l1,6.75v.06H30.38v-.06l3.19-6.75,1.12-7.14.48-6.75,0-.06h6.14l5.8,18.57h.52l1.82-11.76-.94-6.75v-.06H53v.06Z"/><path class="cls-1" d="M51.6,48.32,53.71,41,54.65,35l.26-7.28v-.06h6.6l0,.06L59.39,35,58.45,41l-.26,7.28,0,.06H51.6Z"/><path class="cls-1" d="M81.59,36.19l0,.06-1.74,5.67-.4,2.57a11.9,11.9,0,0,1-9.11,4.1C65.05,48.59,62,45.4,62,39.9c-.11-6.55,5.15-12.63,11.43-12.48l7,.43-1,6.12h-.06l-6.28-6.12c-3.46-.17-6.43,6.38-6.34,12.61,0,4.88,1.42,7.69,3.85,7.69,2.14,0,3.91-2.16,4.2-4l.34-2.25V36.19Z"/><path class="cls-1" d="M81.76,48.32,83.87,41,84.81,35l.26-7.28v-.06h6.6l0,.06L89.56,35l-.43,2.69h6.31L95.87,35l.26-7.28v-.06h6.59l0,.06L100.61,35,99.67,41l-.26,7.28v.06h-6.6v-.06L94.93,41l.45-2.95H89.1L88.61,41l-.25,7.28,0,.06H81.76Z"/><path class="cls-1" d="M106.29,48.32,108.41,41l2-13h-.85l-5.69,6h0L105,27.62h15.71l-1.18,6.43h0l-3.49-6h-.83l-2,13-.29,7.28v.06h-6.57Z"/><path class="cls-1" d="M119.35,48.15,120.4,42h.06l6.34,6.11c2,0,3.83-2.14,3.83-4.24,0-1.79-1-2.63-2.57-3.54l-1.23-.61c-1.23-.62-2.2-1.17-2.89-1.61a5.13,5.13,0,0,1-2.34-4.51c0-3.74,3.2-6.22,8.63-6.22l6.11.43L135.23,34h-.06l-5.43-6.12A2.7,2.7,0,0,0,127.51,29a4.57,4.57,0,0,0-.88,2.81c0,1.9.86,2.75,2.94,3.83.32.15.77.38,1.37.65a25.87,25.87,0,0,1,2.54,1.31,4.41,4.41,0,0,1,2.26,4c.09,3.83-4.34,7.08-10.08,7Z"/><path class="cls-2" d="M146.5,35.1c.74,3.91,3,6.18,6.76,6.93a7.93,7.93,0,0,0-6.78,6.86,7.72,7.72,0,0,0-2.19-4.6,7.34,7.34,0,0,0-4.48-2.23C143.5,41.29,145.77,39.07,146.5,35.1Z"/><path class="cls-2" d="M155.69,25.69c.74,3.91,3,6.18,6.77,6.93-3.86.74-6,3.05-6.79,6.86a7.72,7.72,0,0,0-2.19-4.6A7.34,7.34,0,0,0,149,32.65C152.7,31.88,155,29.66,155.69,25.69Z"/><path class="cls-2" d="M165.27,35.1c.74,3.91,3,6.18,6.77,6.93a7.94,7.94,0,0,0-6.79,6.86,7.72,7.72,0,0,0-2.19-4.6,7.34,7.34,0,0,0-4.48-2.23C162.28,41.29,164.54,39.07,165.27,35.1Z"/><path class="cls-2" d="M174.47,25.69c.73,3.91,2.95,6.18,6.76,6.93-3.86.74-6,3.05-6.79,6.86a7.67,7.67,0,0,0-2.19-4.6,7.32,7.32,0,0,0-4.48-2.23C171.47,31.88,173.73,29.66,174.47,25.69Z"/><path class="cls-2" d="M184.05,35.1c.73,3.91,2.95,6.18,6.76,6.93A7.94,7.94,0,0,0,184,48.89a7.67,7.67,0,0,0-2.19-4.6,7.32,7.32,0,0,0-4.48-2.23C181.05,41.29,183.31,39.07,184.05,35.1Z"/><path class="cls-2" d="M193.24,25.69c.73,3.91,2.95,6.18,6.76,6.93a7.92,7.92,0,0,0-6.78,6.86,7.73,7.73,0,0,0-2.2-4.6,7.32,7.32,0,0,0-4.47-2.23C190.24,31.88,192.5,29.66,193.24,25.69Z"/><path class="cls-2" d="M18,61.7a31.85,31.85,0,0,0,11.9,3.22A31.47,31.47,0,0,0,42.06,63.4L43.2,63a31,31,0,0,0,3-1.45A32.66,32.66,0,0,0,57,52a.29.29,0,0,0,0-.37.26.26,0,0,0-.35,0A26.62,26.62,0,0,1,39.93,58,27,27,0,0,1,14,39.51,28,28,0,0,1,21,8,26.6,26.6,0,0,1,37.56,1.18a.27.27,0,0,0,.25-.25.28.28,0,0,0-.22-.29A31.43,31.43,0,0,0,20.13,2L19,2.5A32,32,0,0,0,9,9.77,33.33,33.33,0,0,0,2.35,20.36,34.15,34.15,0,0,0,2,44.28a33.08,33.08,0,0,0,5.83,9.55A32.46,32.46,0,0,0,18,61.7Z"/><path class="cls-1" d="M52.61,54.41c-.63.3-1.27.59-1.93.86A27.14,27.14,0,0,1,15.11,39.34,29,29,0,0,1,31.25,2.45c.66-.26,1.32-.49,2-.7a31.07,31.07,0,0,0-8.42,2.19C10,9.8,2.68,26.84,8.41,42a28.52,28.52,0,0,0,37.17,16.8A28.28,28.28,0,0,0,52.61,54.41Z"/></svg>